<svg xmlns="http://www.w3.org/2000/svg" width="440" height="956" viewBox="0 0 440 956"><defs></defs><g id="02 Wealth · Home"><rect id="02 Wealth · Home / background" x="0" y="0" width="440" height="956" rx="0" fill="#EEF0F2"/><g id="Status bar"><text x="36" y="34" font-family="Inter" font-size="15" font-weight="600" fill="#0A0A0A" text-anchor="start">9:41</text><rect x="378" y="24" width="26" height="12" rx="3" fill="none" stroke="#0A0A0A" stroke-width="1.2"/></g><g id="Header"><text x="36" y="88" font-family="Space Mono" font-size="11" font-weight="400" fill="#6B737B" text-anchor="start" letter-spacing="0.8">NET WORTH · TODAY</text><text x="36" y="136" font-family="Space Mono" font-size="40" font-weight="400" fill="#0A0A0A" text-anchor="start">₹12,50,096</text><text x="36" y="164" font-family="Space Mono" font-size="13" font-weight="400" fill="#5E9E7A" text-anchor="start">+ ₹42,300 this month</text><rect x="364" y="64" width="40" height="40" rx="20" fill="#FFFFFF"/><text x="384" y="90" font-family="Inter" font-size="16" font-weight="600" fill="#0A0A0A" text-anchor="middle">₹</text></g><g id="Segmented / horizon"><rect x="36" y="186" width="368" height="36" rx="18" fill="#EEF0F2"/><text x="82.0" y="209" font-family="Space Mono" font-size="12" font-weight="400" fill="#6B737B" text-anchor="middle">3M</text><text x="174.0" y="209" font-family="Space Mono" font-size="12" font-weight="400" fill="#6B737B" text-anchor="middle">1Y</text><rect x="223.0" y="189" width="86.0" height="30" rx="15" fill="#000000"/><text x="266.0" y="209" font-family="Space Mono" font-size="12" font-weight="400" fill="#F5F6F7" text-anchor="middle">5Y</text><text x="358.0" y="209" font-family="Space Mono" font-size="12" font-weight="400" fill="#6B737B" text-anchor="middle">10Y</text></g><g id="Card / Forecast"><rect id="Card / Forecast / bg" x="36" y="238" width="368" height="330" rx="36" fill="#FFFFFF"/><text x="56" y="272" font-family="Space Mono" font-size="11" font-weight="400" fill="#6B737B" text-anchor="start" letter-spacing="0.8">FORECAST · 5 YEARS</text><text x="56" y="300" font-family="Inter" font-size="13" font-weight="400" fill="#6B737B" text-anchor="start">In today's rupees</text><rect x="288" y="258" width="96" height="30" rx="15" fill="#EEF0F2"/><text x="336" y="278" font-family="Inter" font-size="12" font-weight="400" fill="#0A0A0A" text-anchor="middle">Scenarios ▾</text><line x1="56" y1="328.0" x2="384" y2="328.0" stroke="#E3E6EA" stroke-width="1" stroke-linecap="round" stroke-dasharray="2 4"/><line x1="56" y1="385.3333333333333" x2="384" y2="385.3333333333333" stroke="#E3E6EA" stroke-width="1" stroke-linecap="round" stroke-dasharray="2 4"/><line x1="56" y1="442.6666666666667" x2="384" y2="442.6666666666667" stroke="#E3E6EA" stroke-width="1" stroke-linecap="round" stroke-dasharray="2 4"/><line x1="56" y1="500.0" x2="384" y2="500.0" stroke="#E3E6EA" stroke-width="1" stroke-linecap="round" stroke-dasharray="2 4"/><path d="M56.0 482.8 L121.6 445.0 L187.2 420.9 L252.8 386.5 L318.4 352.1 L384.0 317.7 L384.0 427.8 L318.4 438.1 L252.8 451.8 L187.2 472.5 L121.6 469.0 L56.0 482.8 Z" stroke="none" fill="#B9A7F0" stroke-width="2" stroke-linecap="round" stroke-linejoin="round" opacity="0.25"/><line x1="56" y1="475.92" x2="384" y2="475.92" stroke="#E46247" stroke-width="1" stroke-linecap="round" stroke-dasharray="4 4"/><text x="384" y="469.92" font-family="Space Mono" font-size="10" font-weight="400" fill="#E46247" text-anchor="end">Floor</text><path d="M56.0 482.8 C66.9 479.9 99.7 471.3 121.6 465.6 C143.5 459.9 165.3 454.1 187.2 448.4 C209.1 442.7 230.9 436.9 252.8 431.2 C274.7 425.5 296.5 419.7 318.4 414.0 C340.3 408.3 373.1 399.7 384.0 396.8" stroke="#6E7C88" fill="none" stroke-width="2" stroke-linecap="round" stroke-linejoin="round" stroke-dasharray="5 5"/><path d="M56.0 482.8 C66.9 477.6 99.7 461.6 121.6 451.8 C143.5 442.1 165.3 434.1 187.2 424.3 C209.1 414.6 230.9 403.7 252.8 393.4 C274.7 383.0 296.5 373.3 318.4 362.4 C340.3 351.5 373.1 333.7 384.0 328.0" stroke="#8C7FD6" fill="none" stroke-width="2.5" stroke-linecap="round" stroke-linejoin="round"/><path d="M56.0 482.8 C66.9 478.8 99.7 464.5 121.6 458.7 C143.5 453.0 165.3 454.7 187.2 448.4 C209.1 442.1 230.9 429.5 252.8 420.9 C274.7 412.3 296.5 404.3 318.4 396.8 C340.3 389.3 373.1 379.6 384.0 376.2" stroke="#0A0A0A" fill="none" stroke-width="2.5" stroke-linecap="round" stroke-linejoin="round"/><line x1="252.8" y1="320" x2="252.8" y2="500" stroke="#0A0A0A" stroke-width="1" stroke-linecap="round"/><circle cx="252.8" cy="420.88" r="6" fill="#FFFFFF" stroke="#0A0A0A" stroke-width="2"/><g id="Tooltip / scrub"><rect x="124.80000000000001" y="324" width="116" height="64" rx="14" fill="#000000"/><text x="136.8" y="344" font-family="Space Mono" font-size="9" font-weight="400" fill="#8A9199" text-anchor="start" letter-spacing="0.8">SEP 2029 · AGE 31</text><text x="136.8" y="368" font-family="Space Mono" font-size="18" font-weight="400" fill="#F5F6F7" text-anchor="start">₹31.4L</text><text x="136.8" y="382" font-family="Inter" font-size="10" font-weight="400" fill="#8A9199" text-anchor="start">2 goals reached</text></g><text x="56.0" y="522" font-family="Space Mono" font-size="11" font-weight="400" fill="#6B737B" text-anchor="middle">'26</text><text x="121.6" y="522" font-family="Space Mono" font-size="11" font-weight="400" fill="#6B737B" text-anchor="middle">'27</text><text x="187.2" y="522" font-family="Space Mono" font-size="11" font-weight="400" fill="#6B737B" text-anchor="middle">'28</text><text x="252.8" y="522" font-family="Space Mono" font-size="11" font-weight="400" fill="#6B737B" text-anchor="middle">'29</text><text x="318.4" y="522" font-family="Space Mono" font-size="11" font-weight="400" fill="#6B737B" text-anchor="middle">'30</text><text x="384.0" y="522" font-family="Space Mono" font-size="11" font-weight="400" fill="#6B737B" text-anchor="middle">'31</text><line x1="56" y1="538" x2="74" y2="538" stroke="#0A0A0A" stroke-width="2.5" stroke-linecap="round"/><text x="80" y="542" font-family="Inter" font-size="12" font-weight="400" fill="#6B737B" text-anchor="start">Current</text><line x1="151" y1="538" x2="169" y2="538" stroke="#8C7FD6" stroke-width="2.5" stroke-linecap="round"/><text x="175" y="542" font-family="Inter" font-size="12" font-weight="400" fill="#6B737B" text-anchor="start">Good habits</text><line x1="274" y1="538" x2="292" y2="538" stroke="#6E7C88" stroke-width="2.5" stroke-linecap="round" stroke-dasharray="4 3"/><text x="298" y="542" font-family="Inter" font-size="12" font-weight="400" fill="#6B737B" text-anchor="start">Baseline</text></g><g id="Card / Goal timeline"><rect id="Card / Goal timeline / bg" x="36" y="584" width="368" height="148" rx="24" fill="#FFFFFF"/><text x="56" y="614" font-family="Space Mono" font-size="11" font-weight="400" fill="#6B737B" text-anchor="start" letter-spacing="0.8">GOALS ON YOUR TIMELINE</text><text x="384" y="614" font-family="Inter" font-size="13" font-weight="600" fill="#0A0A0A" text-anchor="end">+ Add</text><line x1="56" y1="658" x2="384" y2="658" stroke="#E3E6EA" stroke-width="3" stroke-linecap="round"/><circle cx="86.0" cy="658" r="8" fill="#F2AE7B"/><text x="86.0" y="688" font-family="Inter" font-size="12" font-weight="400" fill="#0A0A0A" text-anchor="middle">Goa trip</text><rect x="170.2" y="651" width="14" height="14" rx="3" fill="#E46247"/><text x="177.2" y="688" font-family="Inter" font-size="12" font-weight="400" fill="#0A0A0A" text-anchor="middle">Car</text><path d="M264.8 648 L274.8 658 L264.8 668 L254.8 658 Z" stroke="none" fill="#5E9E7A" stroke-width="2" stroke-linecap="round" stroke-linejoin="round"/><text x="264.8" y="688" font-family="Inter" font-size="12" font-weight="400" fill="#0A0A0A" text-anchor="middle">House</text><circle cx="368.0" cy="658" r="8" fill="#6F86C9"/><text x="368.0" y="688" font-family="Inter" font-size="12" font-weight="400" fill="#0A0A0A" text-anchor="middle">Venture</text><text x="56" y="714" font-family="Inter" font-size="12" font-weight="400" fill="#6B737B" text-anchor="start">Drag a goal to see how it moves your curve</text></g><g id="Card / Habits gap"><rect id="Card / Habits gap / bg" x="36" y="746" width="177" height="112" rx="24" fill="#FFFFFF"/><text x="52" y="774" font-family="Space Mono" font-size="10" font-weight="400" fill="#6B737B" text-anchor="start" letter-spacing="0.8">GOOD HABITS ADD</text><text x="52" y="810" font-family="Space Mono" font-size="26" font-weight="400" fill="#8C7FD6" text-anchor="start">₹38L</text><text x="52" y="836" font-family="Inter" font-size="12" font-weight="400" fill="#6B737B" text-anchor="start">by 2031</text></g><g id="Card / Ask AI"><rect id="Card / Ask AI / bg" x="227" y="746" width="177" height="112" rx="24" fill="#000000"/><text x="243" y="774" font-family="Space Mono" font-size="10" font-weight="400" fill="#8A9199" text-anchor="start" letter-spacing="0.8">ASK AI</text><text x="243" y="806" font-family="Inter" font-size="13" font-weight="400" fill="#F5F6F7" text-anchor="start">“What if I buy the</text><text x="243" y="824" font-family="Inter" font-size="13" font-weight="400" fill="#F5F6F7" text-anchor="start">car in 2027?”</text><text x="388" y="844" font-family="Inter" font-size="16" font-weight="400" fill="#F5F6F7" text-anchor="end">→</text></g><g id="Tab bar"><rect x="0" y="872" width="440" height="84" rx="0" fill="#FFFFFF"/><line x1="0" y1="872" x2="440" y2="872" stroke="#DDE1E5" stroke-width="1" stroke-linecap="round"/><rect x="71.0" y="886" width="22" height="22" rx="7" fill="#0A0A0A"/><text x="82.0" y="924" font-family="Inter" font-size="11" font-weight="600" fill="#0A0A0A" text-anchor="middle">Wealth</text><rect x="163.0" y="886" width="22" height="22" rx="7" fill="none" stroke="#6B737B" stroke-width="1.5"/><text x="174.0" y="924" font-family="Inter" font-size="11" font-weight="400" fill="#6B737B" text-anchor="middle">Spend</text><rect x="255.0" y="886" width="22" height="22" rx="7" fill="none" stroke="#6B737B" stroke-width="1.5"/><text x="266.0" y="924" font-family="Inter" font-size="11" font-weight="400" fill="#6B737B" text-anchor="middle">Habits</text><rect x="347.0" y="886" width="22" height="22" rx="7" fill="none" stroke="#6B737B" stroke-width="1.5"/><text x="358.0" y="924" font-family="Inter" font-size="11" font-weight="400" fill="#6B737B" text-anchor="middle">Ask AI</text></g></g></svg>
