<svg xmlns="http://www.w3.org/2000/svg" width="440" height="956" viewBox="0 0 440 956"><defs></defs><g id="04 Spend · Subscriptions"><rect id="04 Spend · Subscriptions / background" x="0" y="0" width="440" height="956" rx="0" fill="#EEF0F2"/><g id="Status bar"><text x="36" y="34" font-family="Inter" font-size="15" font-weight="600" fill="#0A0A0A" text-anchor="start">9:41</text><rect x="378" y="24" width="26" height="12" rx="3" fill="none" stroke="#0A0A0A" stroke-width="1.2"/></g><g id="Header"><path d="M44 82 L36 90 L44 98" stroke="#0A0A0A" fill="none" stroke-width="2" stroke-linecap="round" stroke-linejoin="round"/><text x="36" y="138" font-family="Space Mono" font-size="11" font-weight="400" fill="#6B737B" text-anchor="start" letter-spacing="0.8">SUBSCRIPTIONS · MONTHLY</text><text x="36" y="184" font-family="Space Mono" font-size="40" font-weight="400" fill="#0A0A0A" text-anchor="start">₹4,860</text><text x="36" y="212" font-family="Space Mono" font-size="13" font-weight="400" fill="#6B737B" text-anchor="start">11 active · ₹58,320 a year</text></g><g id="Card / Insight"><rect id="Card / Insight / bg" x="36" y="240" width="368" height="150" rx="24" fill="#000000"/><text x="60" y="274" font-family="Space Mono" font-size="11" font-weight="400" fill="#8A9199" text-anchor="start" letter-spacing="0.8">INSIGHT</text><text x="60" y="306" font-family="Inter" font-size="17" font-weight="600" fill="#F5F6F7" text-anchor="start">No Spotify use in 3 months</text><text x="60" y="330" font-family="Inter" font-size="13" font-weight="400" fill="#8A9199" text-anchor="start">Cancelling saves ₹1,428 a year.</text><rect x="60" y="346" width="110" height="32" rx="16" fill="#F5F6F7"/><text x="115" y="367" font-family="Inter" font-size="13" font-weight="600" fill="#000000" text-anchor="middle">Cancel</text><rect x="180" y="346" width="90" height="32" rx="16" fill="none" stroke="#8A9199" stroke-width="1"/><text x="225" y="367" font-family="Inter" font-size="13" font-weight="400" fill="#F5F6F7" text-anchor="middle">Keep</text></g><g id="Card / Entertainment"><rect id="Card / Entertainment / bg" x="36" y="402" width="368" height="188" rx="24" fill="#FFFFFF"/><text x="56" y="430" font-family="Space Mono" font-size="11" font-weight="400" fill="#6B737B" text-anchor="start" letter-spacing="0.8">ENTERTAINMENT</text><text x="384" y="430" font-family="Space Mono" font-size="12" font-weight="400" fill="#6B737B" text-anchor="end">₹1,247</text><rect x="56" y="452" width="36" height="36" rx="10" fill="#EEF0F2"/><text x="74" y="475" font-family="Inter" font-size="14" font-weight="600" fill="#0A0A0A" text-anchor="middle">N</text><text x="104" y="468" font-family="Inter" font-size="15" font-weight="400" fill="#0A0A0A" text-anchor="start">Netflix</text><text x="104" y="484" font-family="Space Mono" font-size="11" font-weight="400" fill="#6B737B" text-anchor="start">Used 2 days ago</text><text x="384" y="475" font-family="Space Mono" font-size="14" font-weight="400" fill="#0A0A0A" text-anchor="end">₹649</text><line x1="56" y1="494" x2="384" y2="494" stroke="#EEF0F2" stroke-width="1" stroke-linecap="round"/><rect x="56" y="500" width="36" height="36" rx="10" fill="#EEF0F2"/><text x="74" y="523" font-family="Inter" font-size="14" font-weight="600" fill="#0A0A0A" text-anchor="middle">S</text><text x="104" y="516" font-family="Inter" font-size="15" font-weight="400" fill="#0A0A0A" text-anchor="start">Spotify</text><text x="104" y="532" font-family="Space Mono" font-size="11" font-weight="400" fill="#E46247" text-anchor="start">Not used · 3 mo</text><text x="384" y="523" font-family="Space Mono" font-size="14" font-weight="400" fill="#0A0A0A" text-anchor="end">₹119</text><line x1="56" y1="542" x2="384" y2="542" stroke="#EEF0F2" stroke-width="1" stroke-linecap="round"/><rect x="56" y="548" width="36" height="36" rx="10" fill="#EEF0F2"/><text x="74" y="571" font-family="Inter" font-size="14" font-weight="600" fill="#0A0A0A" text-anchor="middle">H</text><text x="104" y="564" font-family="Inter" font-size="15" font-weight="400" fill="#0A0A0A" text-anchor="start">Hotstar</text><text x="104" y="580" font-family="Space Mono" font-size="11" font-weight="400" fill="#6B737B" text-anchor="start">Used last week</text><text x="384" y="571" font-family="Space Mono" font-size="14" font-weight="400" fill="#0A0A0A" text-anchor="end">₹479</text></g><g id="Card / AI tools"><rect id="Card / AI tools / bg" x="36" y="602" width="368" height="140" rx="24" fill="#FFFFFF"/><text x="56" y="630" font-family="Space Mono" font-size="11" font-weight="400" fill="#6B737B" text-anchor="start" letter-spacing="0.8">AI TOOLS</text><text x="384" y="630" font-family="Space Mono" font-size="12" font-weight="400" fill="#6B737B" text-anchor="end">₹3,413</text><rect x="56" y="652" width="36" height="36" rx="10" fill="#EEF0F2"/><text x="74" y="675" font-family="Inter" font-size="14" font-weight="600" fill="#0A0A0A" text-anchor="middle">C</text><text x="104" y="668" font-family="Inter" font-size="15" font-weight="400" fill="#0A0A0A" text-anchor="start">Claude</text><text x="104" y="684" font-family="Space Mono" font-size="11" font-weight="400" fill="#6B737B" text-anchor="start">Used today</text><text x="384" y="675" font-family="Space Mono" font-size="14" font-weight="400" fill="#0A0A0A" text-anchor="end">₹1,700</text><line x1="56" y1="694" x2="384" y2="694" stroke="#EEF0F2" stroke-width="1" stroke-linecap="round"/><rect x="56" y="700" width="36" height="36" rx="10" fill="#EEF0F2"/><text x="74" y="723" font-family="Inter" font-size="14" font-weight="600" fill="#0A0A0A" text-anchor="middle">C</text><text x="104" y="716" font-family="Inter" font-size="15" font-weight="400" fill="#0A0A0A" text-anchor="start">ChatGPT</text><text x="104" y="732" font-family="Space Mono" font-size="11" font-weight="400" fill="#E46247" text-anchor="start">Overlaps with Claude</text><text x="384" y="723" font-family="Space Mono" font-size="14" font-weight="400" fill="#0A0A0A" text-anchor="end">₹1,713</text></g><g id="Card / Work tools"><rect id="Card / Work tools / bg" x="36" y="754" width="368" height="92" rx="24" fill="#FFFFFF"/><text x="56" y="782" font-family="Space Mono" font-size="11" font-weight="400" fill="#6B737B" text-anchor="start" letter-spacing="0.8">WORK TOOLS</text><text x="384" y="782" font-family="Space Mono" font-size="12" font-weight="400" fill="#6B737B" text-anchor="end">₹200</text><rect x="56" y="804" width="36" height="36" rx="10" fill="#EEF0F2"/><text x="74" y="827" font-family="Inter" font-size="14" font-weight="600" fill="#0A0A0A" text-anchor="middle">F</text><text x="104" y="820" font-family="Inter" font-size="15" font-weight="400" fill="#0A0A0A" text-anchor="start">Figma</text><text x="104" y="836" font-family="Space Mono" font-size="11" font-weight="400" fill="#6B737B" text-anchor="start">Reimbursable</text><text x="384" y="827" font-family="Space Mono" font-size="14" font-weight="400" fill="#0A0A0A" text-anchor="end">Paid by work</text></g><g id="Tab bar"><rect x="0" y="872" width="440" height="84" rx="0" fill="#FFFFFF"/><line x1="0" y1="872" x2="440" y2="872" stroke="#DDE1E5" stroke-width="1" stroke-linecap="round"/><rect x="71.0" y="886" width="22" height="22" rx="7" fill="none" stroke="#6B737B" stroke-width="1.5"/><text x="82.0" y="924" font-family="Inter" font-size="11" font-weight="400" fill="#6B737B" text-anchor="middle">Wealth</text><rect x="163.0" y="886" width="22" height="22" rx="7" fill="#0A0A0A"/><text x="174.0" y="924" font-family="Inter" font-size="11" font-weight="600" fill="#0A0A0A" text-anchor="middle">Spend</text><rect x="255.0" y="886" width="22" height="22" rx="7" fill="none" stroke="#6B737B" stroke-width="1.5"/><text x="266.0" y="924" font-family="Inter" font-size="11" font-weight="400" fill="#6B737B" text-anchor="middle">Habits</text><rect x="347.0" y="886" width="22" height="22" rx="7" fill="none" stroke="#6B737B" stroke-width="1.5"/><text x="358.0" y="924" font-family="Inter" font-size="11" font-weight="400" fill="#6B737B" text-anchor="middle">Ask AI</text></g></g></svg>
